<?xml version="1.0" encoding="utf-8"?>
<!-- Generator: Adobe Illustrator 20.1.0, SVG Export Plug-In . SVG Version: 6.00 Build 0)  -->
<svg version="1.1" id="Layer_1" xmlns="http://www.w3.org/2000/svg" xmlns:xlink="http://www.w3.org/1999/xlink" x="0px" y="0px"
	 viewBox="0 0 152.3 147.2" style="enable-background:new 0 0 152.3 147.2;" xml:space="preserve">
<style type="text/css">
	.st0{fill:#FFFFFF;stroke:#000000;stroke-width:3;stroke-miterlimit:10;}
</style>
<title>Asset 1</title>
<g id="Layer_2">
	<g id="Layer_1-2">
		<path class="st0" d="M115.4,147.2c-1.3,0-2.5-0.3-3.7-1l-33.6-19.4c-2.9-1.7-6.5-1.8-9.6-0.4l-35.1,16.7c-1,0.5-2,0.7-3.1,0.7
			c-2.2,0-4.3-1-5.7-2.8c-1.4-1.7-1.9-3.9-1.4-6l8.1-38c0.7-3.3-0.3-6.8-2.6-9.2L2,59.5c-2.8-2.9-2.6-7.6,0.3-10.3
			c1.2-1.1,2.7-1.8,4.3-2l38.6-4c3.4-0.3,6.4-2.3,8-5.3L71.7,3.8c1.9-3.5,6.4-4.8,9.9-2.9c1.4,0.8,2.5,2,3.2,3.4l15.8,35.5
			c1.4,3.1,4.2,5.3,7.5,6l38.2,7.1c4,0.7,6.6,4.6,5.8,8.5c-0.3,1.6-1.1,3-2.3,4.1l-28.9,26c-2.5,2.3-3.8,5.6-3.3,9l5,38.5
			c0.3,2.1-0.3,4.2-1.7,5.7C119.5,146.3,117.5,147.2,115.4,147.2z"/>
	</g>
</g>
</svg>
